<?xml version="1.0" encoding="UTF-8"?>
<svg id="Layer_2" data-name="Layer 2" xmlns="http://www.w3.org/2000/svg" viewBox="0 0 418.69 90.31">
  <defs>
    <style>
      .cls-1 {
        fill: #fff;
      }
    </style>
  </defs>
  <g id="Layer_1-2" data-name="Layer 1">
    <g id="Logo">
      <path class="cls-1" d="M0,88.8L18.54,0h17.44l-6.24,29.68c3.19-2.42,6.17-4.15,8.93-5.18,2.77-1.03,5.78-1.54,9.06-1.54,6.78,0,12.21,2.27,16.29,6.81,4.08,4.54,6.12,11.16,6.12,19.84,0,5.86-.96,11.54-2.88,17.05-1.92,5.51-4.48,9.99-7.69,13.45-3.21,3.45-6.58,6.02-10.12,7.69-3.53,1.68-7.24,2.51-11.12,2.51-9.21,0-15.97-4.04-20.29-12.11l-2.24,10.6H0ZM23.44,62.57c0,4.32,1.22,7.83,3.66,10.54,2.44,2.71,5.32,4.06,8.63,4.06,2.91,0,5.68-1.05,8.33-3.15,2.64-2.1,4.85-5.45,6.6-10.05,1.76-4.6,2.63-9.25,2.63-13.93s-1.18-8.15-3.54-10.75-5.22-3.91-8.57-3.91c-4.36,0-8.12,2.02-11.27,6.06-4.32,5.53-6.48,12.58-6.48,21.14Z"/>
      <path class="cls-1" d="M100.79,42.7l-16.96-1.45c1.94-5.73,5.32-10.22,10.15-13.45,4.82-3.23,11.22-4.85,19.17-4.85s14.4,1.67,18.35,5c3.96,3.33,5.94,7.4,5.94,12.21,0,1.94-.17,4-.51,6.18-.34,2.18-1.54,7.92-3.6,17.2-1.7,7.67-2.54,13.04-2.54,16.11,0,2.75.48,5.79,1.45,9.15h-16.9c-.69-2.34-1.11-4.76-1.27-7.27-2.54,2.83-5.47,5-8.78,6.51-3.31,1.51-6.64,2.27-9.99,2.27-5.33,0-9.73-1.75-13.21-5.24-3.47-3.49-5.21-7.99-5.21-13.48,0-6.14,1.91-11.04,5.72-14.72,3.82-3.67,10.63-5.9,20.44-6.66,8.28-.69,13.81-1.51,16.6-2.48.73-2.42,1.09-4.36,1.09-5.81,0-1.86-.75-3.41-2.24-4.66-1.49-1.25-3.72-1.88-6.66-1.88-3.11,0-5.56.64-7.36,1.91-1.8,1.27-3.02,3.08-3.66,5.42ZM117.33,58.82c-1.05.28-2.44.55-4.18.79-8.72,1.05-14.42,2.58-17.08,4.6-1.9,1.45-2.85,3.41-2.85,5.88,0,2.02.73,3.73,2.18,5.12s3.37,2.09,5.75,2.09c2.62,0,5.1-.64,7.42-1.91,2.32-1.27,4.06-2.91,5.21-4.91s2.17-5.12,3.06-9.36l.48-2.3Z"/>
      <path class="cls-1" d="M157.73,24.47h16.23l-2.6,12.48c6.06-9.33,12.62-13.99,19.69-13.99,2.5,0,5.19.63,8.06,1.88l-6.66,14.23c-1.57-.56-3.25-.85-5.03-.85-2.99,0-6.03,1.13-9.12,3.39-3.09,2.26-5.5,5.28-7.24,9.06-1.74,3.78-3.45,9.76-5.15,17.96l-4.24,20.17h-17.38l13.45-64.33Z"/>
      <path class="cls-1" d="M256.16,62.03h-43.61c-.04.69-.06,1.21-.06,1.57,0,4.28,1.22,7.73,3.66,10.36,2.44,2.63,5.42,3.94,8.93,3.94,5.77,0,10.28-2.99,13.51-8.96l15.57,2.6c-3.03,6.26-7.08,10.95-12.15,14.08-5.07,3.13-10.75,4.69-17.05,4.69-8.64,0-15.67-2.73-21.08-8.21-5.41-5.47-8.12-12.71-8.12-21.72s2.44-16.64,7.33-23.5c6.66-9.29,16.17-13.93,28.53-13.93,7.87,0,14.13,2.43,18.78,7.3,4.64,4.87,6.97,11.68,6.97,20.44,0,4.2-.4,7.98-1.21,11.33ZM241.5,51.43c.04-.77.06-1.35.06-1.76,0-4.76-1.07-8.34-3.21-10.72-2.14-2.38-5.01-3.57-8.6-3.57s-6.81,1.35-9.66,4.06c-2.85,2.71-4.78,6.7-5.78,11.99h27.2Z"/>
      <path class="cls-1" d="M325.15,62.03h-43.61c-.04.69-.06,1.21-.06,1.57,0,4.28,1.22,7.73,3.66,10.36,2.44,2.63,5.42,3.94,8.93,3.94,5.77,0,10.28-2.99,13.51-8.96l15.57,2.6c-3.03,6.26-7.08,10.95-12.15,14.08-5.07,3.13-10.75,4.69-17.05,4.69-8.64,0-15.67-2.73-21.08-8.21-5.41-5.47-8.12-12.71-8.12-21.72s2.44-16.64,7.33-23.5c6.66-9.29,16.17-13.93,28.53-13.93,7.87,0,14.13,2.43,18.78,7.3,4.64,4.87,6.97,11.68,6.97,20.44,0,4.2-.4,7.98-1.21,11.33ZM310.49,51.43c.04-.77.06-1.35.06-1.76,0-4.76-1.07-8.34-3.21-10.72-2.14-2.38-5.01-3.57-8.6-3.57s-6.81,1.35-9.66,4.06c-2.85,2.71-4.78,6.7-5.78,11.99h27.2Z"/>
      <path class="cls-1" d="M345.2,24.47h16.48l-1.7,8.36c4.12-3.55,7.97-6.09,11.54-7.6s7.34-2.27,11.3-2.27c5.29,0,9.46,1.51,12.51,4.54,3.05,3.03,4.57,7.05,4.57,12.05,0,2.26-.67,6.54-2,12.84l-7.57,36.4h-17.38l7.63-36.53c1.13-5.45,1.7-8.7,1.7-9.75,0-2.22-.66-3.97-1.97-5.24-1.31-1.27-3.14-1.91-5.48-1.91-2.54,0-5.37,1.07-8.48,3.21-3.11,2.14-5.55,4.97-7.33,8.48-1.29,2.5-2.75,7.61-4.36,15.32l-5.51,26.41h-17.38l13.45-64.33Z"/>
      <path class="cls-1" d="M410.95,22.01c1.33,0,2.6.33,3.82.99,1.22.66,2.18,1.61,2.87,2.85s1.04,2.53,1.04,3.89-.34,2.63-1.02,3.85c-.68,1.22-1.64,2.17-2.86,2.86s-2.51,1.02-3.85,1.02-2.63-.34-3.85-1.02-2.17-1.64-2.86-2.86c-.68-1.22-1.02-2.51-1.02-3.85s.35-2.65,1.04-3.89,1.65-2.19,2.87-2.85c1.22-.66,2.49-.99,3.82-.99ZM410.96,23.52c-1.06,0-2.08.27-3.06.8-.98.53-1.74,1.3-2.31,2.29s-.84,2.04-.84,3.13.27,2.12.82,3.1c.55.98,1.31,1.75,2.3,2.3.98.55,2.01.83,3.09.83s2.12-.28,3.09-.83c.98-.55,1.74-1.32,2.3-2.3.55-.98.83-2.02.83-3.1s-.28-2.13-.84-3.13c-.56-1-1.33-1.76-2.31-2.29-.98-.53-2-.8-3.06-.8ZM407.46,33.88v-8.21h1.67c1.56,0,2.44,0,2.62.02.55.05.98.16,1.29.33.31.17.56.43.77.79.21.35.31.75.31,1.18,0,.59-.19,1.1-.58,1.52-.39.42-.93.68-1.63.78.25.09.44.2.58.31.13.11.32.32.56.63.06.08.26.41.61,1l.97,1.66h-2.06l-.69-1.33c-.46-.9-.85-1.46-1.15-1.69-.3-.23-.69-.35-1.15-.35h-.43v3.37h-1.67ZM409.13,29.22h.68c.96,0,1.56-.04,1.79-.11.23-.07.42-.2.55-.39.13-.19.2-.4.2-.63s-.07-.43-.2-.61c-.13-.18-.32-.31-.56-.38-.24-.08-.84-.12-1.79-.12h-.68v2.24Z"/>
    </g>
  </g>
</svg>