<?xml version="1.0" encoding="UTF-8"?>
<svg id="Layer_2" data-name="Layer 2" xmlns="http://www.w3.org/2000/svg" viewBox="0 0 274.27 274.27">
  <defs>
    <style>
      .cls-1 {
        fill: #fff;
      }
    </style>
  </defs>
  <g id="Layer_1-2" data-name="Layer 1">
    <g id="Layer_1-2" data-name="Layer 1-2">
      <g>
        <path class="cls-1" d="M250.27,274.27c-6.14,0-12.28-2.34-16.97-7.03L7.03,40.97C-2.34,31.6-2.34,16.4,7.03,7.03c9.37-9.37,24.57-9.37,33.94,0l226.27,226.27c9.37,9.37,9.37,24.57,0,33.94-4.69,4.69-10.83,7.03-16.97,7.03Z"/>
        <path class="cls-1" d="M24,274.27c-6.14,0-12.28-2.34-16.97-7.03-9.37-9.37-9.37-24.57,0-33.94L233.3,7.03c9.37-9.37,24.57-9.37,33.94,0,9.37,9.37,9.37,24.57,0,33.94L40.97,267.24c-4.69,4.69-10.83,7.03-16.97,7.03Z"/>
      </g>
    </g>
  </g>
</svg>