<?xml version="1.0" encoding="UTF-8"?>
<svg id="Layer_2" data-name="Layer 2" xmlns="http://www.w3.org/2000/svg" viewBox="0 0 416 448">
  <defs>
    <style>
      .cls-1 {
        fill: #fff;
      }
    </style>
  </defs>
  <g id="Layer_1-2" data-name="Layer 1">
    <path class="cls-1" d="M344,448H72c-39.03,0-72-32.97-72-72v-216c0-17.64,14.36-32,32-32h64v-16C96,50.24,146.24,0,208,0s112,50.24,112,112v16h64c17.64,0,32,14.36,32,32v217.25c0,18.92-7.64,36.75-21.52,50.2-13.67,13.25-31.59,20.55-50.48,20.55ZM32,160s-.02,0-.02,0l.02,216c0,21.31,18.69,40,40,40h272c21.68,0,40-17.75,40-38.75v-217.25H32ZM128,128h160v-16c0-44.11-35.89-80-80-80s-80,35.89-80,80v16Z"/>
  </g>
</svg>