<?xml version="1.0" encoding="UTF-8"?>
<svg id="Layer_2" data-name="Layer 2" xmlns="http://www.w3.org/2000/svg" viewBox="0 0 448 352">
  <defs>
    <style>
      .cls-1 {
        fill: #010101;
      }
    </style>
  </defs>
  <g id="Layer_1-2" data-name="Layer 1">
    <g>
      <path class="cls-1" d="M376,352H72c-39.7,0-72-32.3-72-72V72C0,32.3,32.3,0,72,0h304c39.7,0,72,32.3,72,72v208c0,39.7-32.3,72-72,72ZM72,32c-22.06,0-40,17.94-40,40v208c0,22.06,17.94,40,40,40h304c22.06,0,40-17.94,40-40V72c0-22.06-17.94-40-40-40H72Z"/>
      <path class="cls-1" d="M144,270h-48c-16.57,0-30-13.43-30-30v-20c0-16.57,13.43-30,30-30h48c16.57,0,30,13.43,30,30v20c0,16.57-13.43,30-30,30ZM432,142H16v-60h416v60Z"/>
    </g>
  </g>
</svg>