<svg width="256" height="256" viewBox="0 0 256 256" fill="none" xmlns="http://www.w3.org/2000/svg">
<rect width="256" height="256" fill="#888888"/>
<path d="M31.2861 187.644L23.2452 191.393L12.1803 167.665L20.3834 163.839C22.7393 162.741 24.9845 162.272 27.1191 162.433C29.2579 162.583 31.1954 163.33 32.9317 164.674C34.668 166.018 36.1106 167.922 37.2596 170.386C38.4122 172.858 38.9431 175.196 38.8524 177.401C38.7693 179.603 38.0881 181.58 36.8086 183.334C35.5369 185.083 33.696 186.52 31.2861 187.644ZM25.8094 185.67L29.3432 184.022C30.9962 183.251 32.2345 182.307 33.0581 181.189C33.8781 180.064 34.2853 178.769 34.2795 177.305C34.2702 175.833 33.8423 174.189 32.9958 172.374C32.1494 170.559 31.169 169.182 30.0545 168.244C28.9365 167.299 27.6943 166.783 26.3278 166.696C24.9655 166.597 23.481 166.923 21.8744 167.672L18.2131 169.379L25.8094 185.67ZM54.5545 167.681L49.746 157.369L53.9402 155.414L62.2389 173.21L58.1721 175.107L56.6972 171.944L56.5118 172.03C56.5748 173.214 56.2943 174.337 55.6705 175.399C55.0544 176.457 54.0782 177.298 52.7419 177.921C51.5756 178.465 50.4237 178.687 49.2864 178.587C48.1532 178.476 47.1032 178.039 46.1365 177.277C45.1662 176.507 44.3497 175.412 43.6869 173.99L38.403 162.659L42.5972 160.703L47.5786 171.386C48.1045 172.513 48.8313 173.265 49.759 173.641C50.6867 174.018 51.6526 173.971 52.6567 173.503C53.2747 173.215 53.8031 172.785 54.2419 172.214C54.6807 171.643 54.9469 170.973 55.0403 170.205C55.1378 169.426 54.9759 168.585 54.5545 167.681ZM66.5519 171.199L58.2533 153.403L62.2621 151.533L63.6722 154.557L63.8808 154.46C63.7761 153.267 64.0192 152.185 64.6101 151.214C65.1973 150.235 66.0857 149.468 67.2752 148.913C68.4802 148.351 69.6328 148.171 70.733 148.373C71.8374 148.563 72.7936 149.081 73.6017 149.927L73.7871 149.841C73.72 148.668 74.0169 147.571 74.6778 146.548C75.3428 145.513 76.3203 144.696 77.6102 144.094C79.2477 143.33 80.8254 143.225 82.3431 143.777C83.8607 144.33 85.0824 145.598 86.0081 147.584L91.5784 159.529L87.3726 161.49L82.1048 150.194C81.5898 149.089 80.9199 148.419 80.0951 148.183C79.2667 147.939 78.4277 148.015 77.578 148.411C76.5662 148.883 75.9221 149.569 75.6459 150.469C75.3738 151.358 75.4718 152.304 75.9401 153.308L81.1159 164.408L77.0028 166.326L71.654 154.855C71.2254 153.936 70.6052 153.332 69.7933 153.043C68.9891 152.75 68.1429 152.811 67.2546 153.225C66.6521 153.506 66.1758 153.916 65.8255 154.456C65.4716 154.988 65.2776 155.6 65.2434 156.293C65.2056 156.978 65.3578 157.688 65.7 158.422L70.7462 169.243L66.5519 171.199ZM95.8335 157.545L87.5348 139.748L91.5436 137.879L92.9538 140.903L93.1623 140.806C93.0576 139.613 93.3007 138.531 93.8916 137.56C94.4788 136.581 95.3672 135.814 96.5567 135.259C97.7617 134.697 98.9143 134.517 100.015 134.719C101.119 134.909 102.075 135.427 102.883 136.273L103.069 136.186C103.002 135.014 103.298 133.916 103.959 132.893C104.624 131.859 105.602 131.041 106.892 130.44C108.529 129.676 110.107 129.571 111.625 130.123C113.142 130.675 114.364 131.944 115.29 133.929L120.86 145.875L116.654 147.836L111.386 136.539C110.871 135.435 110.201 134.765 109.377 134.528C108.548 134.285 107.709 134.361 106.86 134.757C105.848 135.229 105.204 135.915 104.927 136.815C104.655 137.703 104.753 138.65 105.222 139.654L110.397 150.754L106.284 152.672L100.936 141.201C100.507 140.282 99.8867 139.678 99.0748 139.389C98.2707 139.096 97.4245 139.157 96.5362 139.571C95.9337 139.852 95.4573 140.262 95.107 140.802C94.7531 141.333 94.5591 141.946 94.5249 142.639C94.4871 143.324 94.6393 144.034 94.9815 144.767L100.028 155.589L95.8335 157.545ZM130.197 149.646C129.625 149.912 129.074 150.113 128.545 150.247C128.026 150.385 127.597 150.463 127.257 150.481L126.707 146.76C127.4 146.653 127.984 146.484 128.459 146.253C128.934 146.022 129.285 145.675 129.511 145.212C129.749 144.753 129.838 144.128 129.78 143.338L129.691 142.208L114.766 127.05L119.215 124.976L129.583 136.503L129.769 136.417L127.615 121.059L132.075 118.979L134.254 142.253C134.361 143.35 134.297 144.363 134.062 145.29C133.83 146.226 133.4 147.057 132.77 147.783C132.151 148.514 131.294 149.134 130.197 149.646ZM144.789 105.828L155.854 129.557L151.555 131.562L140.49 107.833L144.789 105.828ZM160.323 127.473L152.024 109.676L156.033 107.807L157.443 110.831L157.652 110.734C157.547 109.541 157.79 108.459 158.381 107.488C158.968 106.509 159.857 105.742 161.046 105.187C162.251 104.625 163.404 104.445 164.504 104.647C165.608 104.837 166.565 105.355 167.373 106.201L167.558 106.114C167.491 104.942 167.788 103.844 168.449 102.822C169.114 101.787 170.091 100.969 171.381 100.368C173.019 99.6044 174.596 99.4988 176.114 100.051C177.632 100.604 178.853 101.872 179.779 103.857L185.349 115.803L181.144 117.764L175.876 106.467C175.361 105.363 174.691 104.693 173.866 104.457C173.038 104.213 172.199 104.289 171.349 104.685C170.337 105.157 169.693 105.843 169.417 106.743C169.145 107.631 169.243 108.578 169.711 109.582L174.887 120.682L170.774 122.6L165.425 111.129C164.996 110.21 164.376 109.606 163.564 109.317C162.76 109.024 161.914 109.085 161.026 109.499C160.423 109.78 159.947 110.19 159.596 110.73C159.243 111.261 159.049 111.874 159.014 112.567C158.977 113.252 159.129 113.962 159.471 114.696L164.517 125.517L160.323 127.473ZM194.893 111.79C193.765 112.316 192.656 112.589 191.565 112.608C190.478 112.617 189.486 112.346 188.59 111.795C187.702 111.241 186.986 110.38 186.442 109.214C185.973 108.21 185.772 107.293 185.836 106.464C185.901 105.634 186.162 104.873 186.619 104.18C187.077 103.487 187.66 102.853 188.37 102.278C189.084 101.691 189.851 101.15 190.673 100.653C191.666 100.059 192.466 99.5681 193.076 99.1805C193.681 98.7853 194.088 98.4266 194.295 98.1043C194.506 97.7707 194.518 97.4031 194.331 97.0014L194.298 96.9319C193.891 96.0591 193.317 95.5039 192.576 95.2663C191.836 95.0287 190.979 95.1369 190.005 95.5907C188.978 96.0697 188.267 96.6737 187.874 97.4027C187.488 98.128 187.333 98.8444 187.409 99.5519L183.234 100.822C183.038 99.5964 183.127 98.455 183.499 97.3975C183.867 96.3324 184.48 95.3787 185.338 94.5367C186.193 93.6868 187.242 92.972 188.486 92.3921C189.343 91.9923 190.243 91.6947 191.187 91.4993C192.13 91.3039 193.061 91.2741 193.98 91.4098C194.895 91.5377 195.749 91.8966 196.542 92.4864C197.341 93.0725 198.017 93.9565 198.568 95.1383L204.122 107.049L200.09 108.929L198.95 106.485L198.811 106.549C198.787 107.163 198.644 107.794 198.382 108.442C198.124 109.08 197.709 109.692 197.136 110.278C196.568 110.854 195.82 111.358 194.893 111.79ZM194.545 108.2C195.387 107.807 196.04 107.301 196.503 106.681C196.962 106.053 197.228 105.383 197.301 104.672C197.381 103.958 197.269 103.272 196.963 102.615L195.985 100.518C195.904 100.688 195.727 100.893 195.453 101.133C195.187 101.37 194.878 101.613 194.524 101.862C194.17 102.112 193.816 102.352 193.463 102.583C193.11 102.813 192.803 103.013 192.543 103.181C191.957 103.558 191.462 103.958 191.058 104.381C190.653 104.805 190.389 105.257 190.266 105.738C190.138 106.211 190.201 106.718 190.453 107.259C190.813 108.031 191.367 108.483 192.114 108.614C192.862 108.745 193.672 108.607 194.545 108.2ZM219.364 108.518C217.858 109.22 216.469 109.619 215.196 109.714C213.928 109.816 212.807 109.681 211.833 109.307C210.859 108.934 210.053 108.393 209.412 107.685L212.763 105.009C213.095 105.277 213.502 105.506 213.985 105.694C214.471 105.891 215.041 105.973 215.694 105.941C216.358 105.914 217.111 105.703 217.953 105.311C219.143 104.756 219.993 104.007 220.503 103.064C221.016 102.129 220.967 101.004 220.354 99.6914L218.782 96.3197L218.574 96.417C218.559 96.9504 218.45 97.5422 218.245 98.1925C218.048 98.8391 217.682 99.4754 217.146 100.101C216.618 100.724 215.844 101.273 214.825 101.748C213.458 102.385 212.068 102.643 210.657 102.521C209.25 102.387 207.919 101.832 206.665 100.856C205.415 99.8685 204.337 98.4054 203.433 96.4666C202.522 94.5124 202.077 92.712 202.1 91.0654C202.126 89.4075 202.533 87.9716 203.321 86.7578C204.106 85.5362 205.181 84.6067 206.549 83.9691C207.591 83.4829 208.532 83.2607 209.369 83.3027C210.211 83.3333 210.948 83.5022 211.58 83.8092C212.209 84.1085 212.728 84.4259 213.139 84.7612L213.37 84.6531L211.998 81.7102L216.134 79.7814L224.568 97.8676C225.278 99.3893 225.502 100.818 225.24 102.153C224.979 103.488 224.334 104.696 223.305 105.777C222.277 106.859 220.963 107.772 219.364 108.518ZM214.461 97.9118C215.349 97.4975 216.005 96.9283 216.429 96.204C216.853 95.4797 217.038 94.6364 216.984 93.674C216.931 92.7117 216.639 91.6628 216.109 90.5274C215.587 89.4074 214.968 88.502 214.251 87.8114C213.541 87.1171 212.766 86.6841 211.924 86.5124C211.086 86.3294 210.216 86.4486 209.312 86.87C208.377 87.3058 207.711 87.9129 207.312 88.6913C206.913 89.4697 206.753 90.3575 206.833 91.3549C206.909 92.3445 207.197 93.3761 207.698 94.4498C208.206 95.5389 208.809 96.419 209.507 97.0901C210.21 97.7499 210.98 98.1617 211.818 98.3257C212.661 98.4784 213.542 98.3404 214.461 97.9118ZM236.772 92.2472C234.988 93.0793 233.274 93.4271 231.631 93.2907C229.991 93.1429 228.505 92.5475 227.173 91.5045C225.836 90.4538 224.734 88.9976 223.866 87.1361C223.012 85.3055 222.611 83.5367 222.661 81.8299C222.716 80.1118 223.193 78.573 224.091 77.2135C224.987 75.8462 226.284 74.7664 227.983 73.974C229.08 73.4625 230.198 73.1575 231.337 73.059C232.48 72.9492 233.597 73.0864 234.689 73.4709C235.788 73.8517 236.818 74.509 237.78 75.4427C238.739 76.3688 239.582 77.6119 240.309 79.1722L240.909 80.4583L226.322 87.2604L225.004 84.4333L235.57 79.506C235.188 78.7063 234.681 78.0728 234.05 77.6056C233.414 77.1307 232.707 76.854 231.927 76.7756C231.156 76.6935 230.368 76.8397 229.565 77.2143C228.707 77.6141 228.052 78.1738 227.597 78.8935C227.139 79.6055 226.885 80.3821 226.836 81.2234C226.79 82.0533 226.949 82.8679 227.312 83.6671L228.463 86.135C228.946 87.17 229.549 87.9701 230.274 88.5351C230.994 89.0924 231.786 89.4096 232.65 89.4865C233.509 89.5558 234.395 89.3779 235.307 88.9529C235.917 88.6683 236.429 88.3258 236.845 87.9254C237.256 87.5172 237.564 87.0585 237.769 86.5494C237.973 86.0402 238.051 85.4914 238.002 84.9029L242.124 83.517C242.359 84.6673 242.31 85.7908 241.975 86.8874C241.644 87.9726 241.041 88.978 240.165 89.9035C239.286 90.8212 238.155 91.6025 236.772 92.2472Z" fill="black"/>
</svg>
